<svg xmlns="http://www.w3.org/2000/svg" width="30" height="30" viewBox="0 0 30 30"><defs><style>.a{opacity:0;}.b{fill:#333;}.c,.e{fill:none;}.c{stroke:#333;stroke-width:1.5px;}.d{stroke:none;}</style></defs><g transform="translate(-426 -57)"><rect class="a" width="30" height="30" transform="translate(426 57)"/><path class="b" d="M.5,8.249Q.5,8.076.5,7.9A8.26,8.26,0,0,1,8.249-.333v1.5A6.759,6.759,0,0,0,2,7.9c0,.116,0,.232.009.346Z" transform="translate(431.503 72.833)"/><g class="c" transform="translate(435 64)"><circle class="d" cx="5" cy="5" r="5"/><circle class="e" cx="5" cy="5" r="4.25"/></g><path class="b" d="M-5799.057,15202.14a6.767,6.767,0,0,0,.059-.89,6.72,6.72,0,0,0-1.781-4.562l1.063-1.06a8.213,8.213,0,0,1,2.218,5.621,8.358,8.358,0,0,1-.048.89Z" transform="translate(6246 -15120.515)"/></g></svg>