<svg xmlns="http://www.w3.org/2000/svg" width="30" height="30" viewBox="0 0 30 30"><defs><style>.a{opacity:0;}.b{fill:#999;}.c,.e,.g{fill:none;}.c{stroke:#999;}.c,.e{stroke-width:1.5px;}.d{fill:#333;}.e{stroke:#333;}.f{stroke:none;}</style></defs><g transform="translate(-6904 20606.539)"><rect class="a" width="30" height="30" transform="translate(6904 -20606.539)"/><g transform="translate(6490.1 -20661.264)"><path class="b" d="M.043,5A4.5,4.5,0,0,1,4.024.018L4.012,1.542A3,3,0,0,0,1.555,5Z" transform="translate(429.885 66.106)"/><g class="c" transform="translate(431 60.725)"><circle class="f" cx="3.5" cy="3.5" r="3.5"/><circle class="g" cx="3.5" cy="3.5" r="2.75"/></g><path class="b" d="M7.474,4.988A3,3,0,0,0,6.554,2.3l1.309-.812a4.5,4.5,0,0,1,1.124,3.5Z" transform="translate(429.886 66.106)"/></g><g transform="translate(6478 -20663.539)"><path class="d" d="M10.7,7.725a5.25,5.25,0,0,0-10.5,0H-1.3a6.75,6.75,0,0,1,13.5,0Z" transform="translate(432.3 70.013)"/><g class="e" transform="translate(433.299 63)"><circle class="f" cx="4.5" cy="4.5" r="4.5"/><circle class="g" cx="4.5" cy="4.5" r="3.75"/></g></g></g></svg>