<svg xmlns="http://www.w3.org/2000/svg" width="33" height="42" viewBox="0 0 33 42">
  <g id="btn_login2_b" transform="translate(46 70) rotate(180)">
    <rect id="사각형_1212" data-name="사각형 1212" width="30" height="30" transform="translate(16 40)" fill="#101010" opacity="0"/>
    <g id="사각형_1208" data-name="사각형 1208" transform="translate(22 48)" fill="#101010" stroke="#101010" stroke-width="1">
      <rect width="1.5" height="15.5" stroke="none"/>
      <rect x="0.5" y="0.5" width="0.5" height="14.5" fill="none"/>
    </g>
    <g id="사각형_1209" data-name="사각형 1209" transform="translate(29 54.75)" fill="#101010" stroke="#101010" stroke-width="1">
      <rect width="9" height="1.5" stroke="none"/>
      <rect x="0.5" y="0.5" width="8" height="0.5" fill="none"/>
    </g>
    <g id="다각형_17" data-name="다각형 17" transform="translate(26.5 58.5) rotate(-90)" fill="#101010">
      <path d="M 4.792900085449219 2.5 L 1.207100033760071 2.5 L 3 0.707099974155426 L 4.792900085449219 2.5 Z" stroke="none"/>
      <path d="M 3 1.414219975471497 L 2.414220094680786 2 L 3.585779905319214 2 L 3 1.414219975471497 M 3 0 L 6 3 L 0 3 L 3 0 Z" stroke="none" fill="#101010"/>
    </g>
    <g id="사각형_1210" data-name="사각형 1210" transform="translate(22.75 49.5) rotate(-90)" fill="#101010" stroke="#101010" stroke-width="1">
      <rect width="1.5" height="9.541" stroke="none"/>
      <rect x="0.5" y="0.5" width="0.5" height="8.541" fill="none"/>
    </g>
    <g id="사각형_1211" data-name="사각형 1211" transform="translate(23.346 63.5) rotate(-90)" fill="#101010" stroke="#101010" stroke-width="1">
      <rect width="1.5" height="9.541" stroke="none"/>
      <rect x="0.5" y="0.5" width="0.5" height="8.541" fill="none"/>
    </g>
    <text id="로그인" transform="translate(46 31) rotate(180)" fill="#101010" font-size="11" font-family="MalgunGothicBold, Malgun Gothic" letter-spacing="-0.03em"><tspan x="0" y="0">로그인</tspan></text>
  </g>
</svg>
