<svg xmlns="http://www.w3.org/2000/svg" width="96" height="109.113" viewBox="0 0 96 109.113"><defs><style>.a,.c{fill:#fff;}.a,.b,.c,.d,.e{stroke:#333;stroke-width:2px;}.a,.b{stroke-linejoin:round;}.b,.d,.g{fill:none;}.d{stroke-linecap:round;}.e{fill:#01b4d0;}.f{stroke:none;}</style></defs><g transform="translate(-842.513 -627)"><g transform="translate(843.513 685.101)"><path class="a" d="M515.742,458.858h8.691V438H461.86L441,443.214l3.476,15.643h8.691" transform="translate(-441.002 -415.404)"/><line class="b" x2="34.113" transform="translate(26.121 43.19)"/><ellipse class="a" cx="7.31" cy="6.823" rx="7.31" ry="6.823" transform="translate(60.234 36.367)"/><ellipse class="a" cx="7.31" cy="6.823" rx="7.31" ry="6.823" transform="translate(11.501 36.367)"/><path class="a" d="M453.431,425h41.716l6.953,22.6H443Z" transform="translate(-422.144 -425)"/></g><g transform="translate(888.513 627)"><g class="c"><ellipse class="f" cx="13.878" cy="14.945" rx="13.878" ry="14.945"/><ellipse class="g" cx="13.878" cy="14.945" rx="12.878" ry="13.945"/></g><path class="d" d="M2373.038,16573s4.636,5.123,0,10.129,0,9.146,0,9.146" transform="translate(-2359.769 -16544.176)"/><path class="d" d="M2358.32,16533a8.349,8.349,0,0,1,5.317,6.18" transform="translate(-2341.966 -16526.496)"/><g transform="translate(19.721 6.044)"><g class="e" transform="translate(0 0)"><ellipse class="f" cx="15.139" cy="16.304" rx="15.139" ry="16.304"/><ellipse class="g" cx="15.139" cy="16.304" rx="14.139" ry="15.304"/></g><path class="d" d="M2373.226,16573s5.057,5.588,0,11.049,0,9.979,0,9.979" transform="translate(-2358.75 -16541.555)"/><path class="d" d="M2358.32,16533a9.109,9.109,0,0,1,5.8,6.742" transform="translate(-2340.479 -16525.904)"/></g></g></g></svg>