<svg xmlns="http://www.w3.org/2000/svg" width="93.002" height="105.787" viewBox="0 0 93.002 105.787"><defs><style>.a{fill:#fff;}.b,.d,.g,.i{fill:none;}.b,.f,.g{stroke:#333;stroke-width:2px;}.c{fill:#01b4d0;}.e,.f,.j{fill:#333;}.g{stroke-linecap:round;}.h,.j{stroke:none;}</style></defs><g transform="translate(1)"><rect class="a" width="74" height="56" transform="translate(0.002 7.854)"/><rect class="a" width="6" height="12" transform="translate(19.002 0.854)"/><rect class="a" width="6" height="12" transform="translate(50.002 0.854)"/><g class="b" transform="translate(18.308)"><rect class="h" width="7.55" height="13.59"/><rect class="i" x="1" y="1" width="5.55" height="11.59"/></g><g class="b" transform="translate(49.262)"><rect class="h" width="7.55" height="13.59"/><rect class="i" x="1" y="1" width="5.55" height="11.59"/></g><path class="b" d="M498.75-2716.75h17.364" transform="translate(-469.872 2723.733)"/><line class="b" x2="73.232" transform="translate(0.566 23.027)"/><path class="b" d="M501.843,714.684l-52.093.755V658.25h15.288" transform="translate(-449.75 -651.267)"/><path class="b" d="M528.75,658h13.967v33.146" transform="translate(-469.107 -651.205)"/><g transform="translate(11.325 33.103)"><path class="b" d="M450.5-2682.9v-6.854h6.224" transform="translate(-450.5 2689.75)"/><path class="b" d="M450.5-2682.9v-6.854h6.224" transform="translate(-435.401 2689.75)"/><path class="b" d="M450.5-2682.9v-6.854h6.224" transform="translate(-421.056 2689.75)"/><path class="b" d="M450.5-2682.9v-6.854h6.224" transform="translate(-405.957 2689.75)"/><path class="b" d="M450.5-2682.9v-6.854h6.224" transform="translate(-450.5 2703.262)"/></g><g transform="translate(43.493 39.773)"><g transform="translate(0 11.305)"><path class="c" d="M0,43.094a2.747,2.747,0,0,1,.621-1.668,1,1,0,0,1,.1-.367L21.156.236a1,1,0,0,1,1.788,0L43.376,41.059a1,1,0,0,1,.1.367,2.747,2.747,0,0,1,.621,1.668c0,3.893-9.872,7.049-22.05,7.049S0,46.986,0,43.094Z" transform="translate(2.391 3.569)"/><g class="d" transform="translate(0 0)"><path class="h" d="M0,47.041A2.929,2.929,0,0,1,.631,45.3a1,1,0,0,1,.1-.345L23.362.237a1,1,0,0,1,1.785,0L47.775,44.951a1,1,0,0,1,.1.345,2.929,2.929,0,0,1,.631,1.746c0,4.234-10.859,7.668-24.254,7.668S0,51.276,0,47.041Z"/><path class="j" d="M 24.25500106811523 52.70920181274414 C 30.53416061401367 52.70920181274414 36.41072082519531 51.94457244873047 40.80216217041016 50.55618286132813 C 45.48384094238281 49.07601165771484 46.50910186767578 47.51700973510742 46.50910186767578 47.04120254516602 C 46.50910186767578 46.88758087158203 46.42779159545898 46.69925308227539 46.26742935180664 46.48145294189453 L 45.94803237915039 46.04764175415039 L 45.90956115722656 45.69424057006836 L 24.25455093383789 2.902729988098145 L 2.599529981613159 45.69426345825195 L 2.561060905456543 46.04765319824219 L 2.241650819778442 46.48147201538086 C 2.081300973892212 46.69925308227539 2.000000953674316 46.8875732421875 2.000000953674316 47.04120254516602 C 2.000000953674316 47.51700973510742 3.025280952453613 49.07602310180664 7.707040786743164 50.55617141723633 C 12.09860134124756 51.94457244873047 17.97545051574707 52.70920181274414 24.25500106811523 52.70920181274414 M 24.25500106811523 54.70920181274414 C 10.85940074920654 54.70920181274414 9.338378959000693e-07 51.27569961547852 9.338378959000693e-07 47.04120254516602 C 9.338378959000693e-07 46.44068145751953 0.2182109355926514 45.85644149780273 0.6311009526252747 45.29566192626953 C 0.6436809301376343 45.18009185791016 0.6771809458732605 45.06356048583984 0.7344009280204773 44.95050048828125 L 23.36220169067383 0.2367014437913895 C 23.54715156555176 -0.1291485577821732 23.90085029602051 -0.3120735585689545 24.25455093383789 -0.3120735585689545 C 24.60825157165527 -0.3120735585689545 24.96195030212402 -0.1291485577821732 25.14690017700195 0.2367014437913895 L 47.77470016479492 44.95050048828125 C 47.8319206237793 45.06356048583984 47.86540985107422 45.18009185791016 47.87799072265625 45.29566192626953 C 48.29087066650391 45.85644149780273 48.50910186767578 46.44068145751953 48.50910186767578 47.04120254516602 C 48.50910186767578 51.27569961547852 37.64970016479492 54.70920181274414 24.25500106811523 54.70920181274414 Z"/></g><path class="b" d="M603.143-2647.715s6.9,5.71,23.26,3.6" transform="translate(-599.004 2687.879)"/><path class="e" d="M5.639,0,7.3,3.828l3.975.481L8.33,7.156l.793,4.125L5.639,9.213,2.154,11.282l.793-4.125L0,4.309l3.975-.481Z" transform="translate(17.911 22.191)"/></g><g transform="translate(17.579)"><g class="f" transform="translate(3.649 4.645)"><circle class="h" cx="2.985" cy="2.985" r="2.985"/><circle class="i" cx="2.985" cy="2.985" r="1.985"/></g><line class="g" x2="2.647" y2="1.588" transform="translate(0 3.707)"/><line class="g" y2="3.178" transform="translate(6.883)"/><line class="g" x1="2.647" y2="1.588" transform="translate(11.118 3.707)"/></g></g></g></svg>