<svg xmlns="http://www.w3.org/2000/svg" width="93.703" height="97.074" viewBox="0 0 93.703 97.074"><defs><style>.a,.e{fill:#fff;}.b,.c,.f{fill:none;stroke:#333;stroke-width:2px;}.b{stroke-linejoin:bevel;}.c{stroke-linejoin:round;}.d,.g{fill:#01b4d0;}.g{opacity:0.4;}.h,.i{stroke:none;}.i{fill:#333;}</style></defs><g transform="translate(-5 1)"><path class="a" d="M8.989,8.207H32.917l8.2,6.271-7.279,7.264,5.621,5.346V41.549L67.169,65.484l5.622-5.068,5.621,4.143L80.9,62.543l6.353,5.428V80.955H97.928v-16.4l-8.839-8.645,2.39-2.5-4.973-4.6,6.45-5.346L68.468,21.742v-11.5L56.866.93,47.018,9.506,34.864-.633H8.989Z"/><path class="b" d="M937.2-3066.6l8.956,8.5v16.422" transform="translate(-848.453 3122.848)"/><path class="b" d="M931.2-3061.2l6.22,5.965v13.073" transform="translate(-849.916 3123.334)"/><path class="c" d="M897.673-3065.644v-26.814l-5.473-4.8,22.639-21.145,12.19,9.592v11.554l24.629,21.582L944.942-3070l4.727,4.36-13.185,11.117-4.976-4.36-5.971,5.232-20.9-18.747" transform="translate(-858.404 3119.084)"/><g class="d" transform="translate(46.995 40.096) rotate(-45)"><path class="h" d="M 8.243929862976074 25.87290954589844 C 8.125430107116699 25.87290954589844 8.004460334777832 25.86890029907227 7.884380340576172 25.86098098754883 L 7.810540199279785 25.85610961914063 C 6.348060131072998 25.75965118408203 4.929550170898438 25.09344100952148 3.8163001537323 23.98019027709961 C 2.703050136566162 22.86693954467773 2.036840200424194 21.44843101501465 1.940380215644836 19.98596000671387 L 1.011930227279663 5.90872049331665 C 0.9224801659584045 4.552390575408936 1.342700123786926 3.303950548171997 2.195200204849243 2.393370389938354 C 3.03643012046814 1.494840502738953 4.227560043334961 1.000000476837158 5.549180030822754 1.000000476837158 C 5.667680263519287 1.000000476837158 5.788650035858154 1.004010438919067 5.908720016479492 1.011930465698242 L 5.982560157775879 1.01680052280426 C 7.445040225982666 1.113260507583618 8.863550186157227 1.779480457305908 9.976799964904785 2.892720460891724 C 11.09004974365234 4.005970478057861 11.75625991821289 5.424480438232422 11.85272026062012 6.886960506439209 L 12.78116989135742 20.96419143676758 C 12.87061977386475 22.32052993774414 12.45040035247803 23.5689697265625 11.597900390625 24.47955131530762 C 10.75668048858643 25.37807083129883 9.565549850463867 25.87290954589844 8.243929862976074 25.87290954589844 Z"/><path class="i" d="M 5.549180030822754 2 C 4.507189750671387 2 3.575320243835449 2.382419586181641 2.925209999084473 3.076820373535156 C 2.263820648193359 3.783260345458984 1.93871021270752 4.765609741210938 2.009759902954102 5.842910766601563 L 2.938210487365723 19.92015075683594 C 3.018710136413574 21.14059066772461 3.581669807434082 22.33135032653809 4.523409843444824 23.27308082580566 C 5.465140342712402 24.21482086181641 6.655910015106201 24.77778053283691 7.876350402832031 24.85828018188477 L 7.950210094451904 24.86315155029297 C 8.048419952392578 24.86963081359863 8.147239685058594 24.87290954589844 8.243930816650391 24.87290954589844 C 9.285920143127441 24.87290954589844 10.2177906036377 24.4904899597168 10.86789035797119 23.79610061645508 C 11.5292797088623 23.08966064453125 11.85439014434814 22.1073112487793 11.78334045410156 21.03000068664551 L 10.85488986968994 6.952770233154297 C 10.77439022064209 5.732330322265625 10.21142959594727 4.541561126708984 9.269689559936523 3.599830627441406 C 8.327960014343262 2.658090591430664 7.137190341949463 2.095130920410156 5.916749954223633 2.014631271362305 L 5.84289026260376 2.009759902954102 C 5.744680404663086 2.003280639648438 5.645859718322754 2 5.549180030822754 2 M 5.54918384552002 -1.9073486328125e-06 C 5.689478874206543 -1.9073486328125e-06 5.83126974105835 0.004652023315429688 5.974530220031738 0.01410102844238281 L 6.048370361328125 0.01897048950195313 C 9.572669982910156 0.2514114379882813 12.61811065673828 3.296850204467773 12.85054969787598 6.821149826049805 L 13.7790002822876 20.89838027954102 C 14.00199127197266 24.2794189453125 11.55498123168945 26.8729133605957 8.24393367767334 26.8729133605957 C 8.103638648986816 26.8729133605957 7.961830615997314 26.86825942993164 7.818570137023926 26.85881042480469 L 7.744729995727539 26.85394096374512 C 4.220430374145508 26.62150001525879 1.174990653991699 23.5760612487793 0.9425497055053711 20.05177116394043 L 0.01410007476806641 5.974531173706055 C -0.2088909149169922 2.593500137329102 2.238136291503906 -1.9073486328125e-06 5.54918384552002 -1.9073486328125e-06 Z"/></g><g transform="translate(5 65.707)"><g class="e" transform="translate(0 0)"><path class="h" d="M 10.24985122680664 29.3674488067627 C 5.149471282958984 29.3674488067627 1.000001192092896 25.21798896789551 1.000001192092896 20.11761856079102 C 1.000001192092896 18.51857757568359 1.819981217384338 16.1701488494873 3.139951229095459 13.98877811431885 L 3.145731210708618 13.97921848297119 L 3.151301145553589 13.96953773498535 L 10.24985694885254 1.624210238456726 L 17.77648735046387 14.71398830413818 L 17.78061103820801 14.72206783294678 L 17.7950439453125 14.74626350402832 L 17.80778121948242 14.76841831207275 L 17.81113815307617 14.77327537536621 C 18.88449287414551 16.5788688659668 19.49970054626465 18.52541351318359 19.49970054626465 20.11761856079102 C 19.49970054626465 25.21798896789551 15.3502311706543 29.3674488067627 10.24985122680664 29.3674488067627 Z"/><path class="i" d="M 10.24985122680664 28.3674488067627 C 14.79883098602295 28.3674488067627 18.49970054626465 24.66658782958984 18.49970054626465 20.11761856079102 C 18.49970054626465 18.70828819274902 17.94210624694824 16.95992851257324 16.96860122680664 15.31302547454834 L 16.96152114868164 15.30277824401855 L 16.93247604370117 15.2522668838501 L 16.90496063232422 15.20616817474365 L 16.89700698852539 15.19057941436768 L 10.24985027313232 3.630344867706299 L 4.018201351165771 14.46800804138184 L 4.007071018218994 14.48736763000488 L 3.995511293411255 14.50647830963135 C 2.783281326293945 16.50979804992676 2.000001192092896 18.7122974395752 2.000001192092896 20.11761856079102 C 2.000001192092896 24.66658782958984 5.700870990753174 28.3674488067627 10.24985122680664 28.3674488067627 M 10.24985122680664 30.3674488067627 C 4.588860988616943 30.3674488067627 1.226806602971919e-06 25.7785472869873 1.226806602971919e-06 20.11761856079102 C 1.226806602971919e-06 18.18351745605469 0.9754312038421631 15.63424777984619 2.284391164779663 13.47106838226318 L 9.920831680297852 0.1902880519628525 C 9.993776321411133 0.06342805922031403 10.12181377410889 -1.943359393408173e-06 10.24985122680664 -1.943359393408173e-06 C 10.37788867950439 -1.943359393408173e-06 10.50592613220215 0.06342805922031403 10.57887077331543 0.1902880519628525 L 18.65405082702637 14.23404788970947 C 18.65481185913086 14.23514842987061 18.65556144714355 14.23661804199219 18.65631103515625 14.23808765411377 C 19.75285148620605 16.07493782043457 20.49970054626465 18.21090888977051 20.49970054626465 20.11761856079102 C 20.49970054626465 25.7785472869873 15.91050148010254 30.3674488067627 10.24985122680664 30.3674488067627 Z"/></g></g><path class="f" d="M50.117,6.426l-11.635-9h-26.4v7.8H36.451l8.122,6.432Z" transform="translate(-3.097 2.572)"/><g transform="translate(9.897 33.058)"><path class="g" d="M0,9.024A6.417,6.417,0,0,1,1.025,6.043L4.45.085a.17.17,0,0,1,.3,0l3.622,6.3v0A5.4,5.4,0,0,1,9.2,9.024a4.6,4.6,0,0,1-9.2,0Z" transform="translate(1.223 2.447)"/><g class="e" transform="translate(0 0)"><path class="h" d="M 5.352717876434326 14.85861206054688 C 2.952617883682251 14.85861206054688 0.9999978542327881 12.90599155426025 0.9999978542327881 10.50590133666992 C 0.9999978542327881 9.764472007751465 1.41156792640686 8.605241775512695 2.048527956008911 7.552621841430664 L 2.05430793762207 7.54306173324585 L 2.059877872467041 7.533381462097168 L 5.352720737457275 1.806690812110901 L 8.862452507019043 7.910570621490479 L 8.866337776184082 7.918241500854492 L 8.880779266357422 7.942440509796143 L 8.897148132324219 7.970901489257813 L 8.90071964263916 7.975993633270264 C 9.412440299987793 8.842239379882813 9.705437660217285 9.762669563293457 9.705437660217285 10.50590133666992 C 9.705437660217285 12.90599155426025 7.75281810760498 14.85861206054688 5.352717876434326 14.85861206054688 Z"/><path class="i" d="M 5.352717876434326 13.85861206054688 C 7.201417922973633 13.85861206054688 8.705437660217285 12.35459136962891 8.705437660217285 10.50590133666992 C 8.705437660217285 9.953393936157227 8.46445369720459 9.213988304138184 8.058784484863281 8.51711368560791 L 8.052698135375977 8.508441925048828 L 8.018060684204102 8.448188781738281 L 7.989917755126953 8.401041984558105 L 7.982256412506104 8.385916709899902 L 5.35271692276001 3.812821388244629 L 2.926777839660645 8.031851768493652 L 2.915647983551025 8.05122184753418 L 2.904077768325806 8.070331573486328 C 2.282917976379395 9.096851348876953 1.999997854232788 10.05244159698486 1.999997854232788 10.50590133666992 C 1.999997854232788 12.35459136962891 3.50401782989502 13.85861206054688 5.352717876434326 13.85861206054688 M 5.352717876434326 15.85861206054688 C 2.396407842636108 15.85861206054688 -2.123565764122759e-06 13.46217155456543 -2.123565764122759e-06 10.50590133666992 C -2.123565764122759e-06 9.495871543884277 0.5093878507614136 8.164581298828125 1.192967891693115 7.034911632537842 L 5.18089771270752 0.09937166422605515 C 5.218987941741943 0.03312166035175323 5.285850524902344 -3.338928308949107e-06 5.352714061737061 -3.338928308949107e-06 C 5.419578075408936 -3.338928308949107e-06 5.486443042755127 0.03312166035175323 5.524538040161133 0.09937166422605515 L 9.74158763885498 7.433361530303955 C 9.741988182067871 7.433931827545166 9.742378234863281 7.434701442718506 9.742768287658691 7.435471534729004 C 10.31540775299072 8.394721984863281 10.70543766021729 9.510171890258789 10.70543766021729 10.50590133666992 C 10.70543766021729 13.46217155456543 8.308847427368164 15.85861206054688 5.352717876434326 15.85861206054688 Z"/></g></g></g></svg>